<?xml version="1.0" encoding="UTF-8" standalone="no"?>
<!-- Created with Inkscape (http://www.inkscape.org/) -->

<svg
   width="60.382301mm"
   height="6.7309847mm"
   viewBox="0 0 60.382301 6.7309847"
   version="1.1"
   id="svg1"
   xmlns="http://www.w3.org/2000/svg"
   xmlns:svg="http://www.w3.org/2000/svg">
  <defs
     id="defs1" />
  <g
     id="layer1"
     transform="translate(-93.435168,-176.50482)">
    <g
       id="g16">
      <path
         style="font-weight:bold;font-size:10.5833px;line-height:1.25;font-family:FreeMono;-inkscape-font-specification:'FreeMono Bold';fill:#676767;stroke:#676767;stroke-width:0.264583;stroke-opacity:1"
         d="m 99.28244,181.89701 c 0.465663,0 0.698503,0.17639 0.698503,0.52917 0,0.35277 -0.23284,0.52916 -0.698503,0.52916 h -0.83608 c -0.26106,-0.508 -0.59619,-1.00541 -1.00541,-1.49224 -0.40217,-0.49389 -0.71614,-0.77964 -0.94192,-0.85725 h -1.01599 v 1.29116 h 0.37041 c 0.46566,0 0.6985,0.17639 0.6985,0.52917 0,0.35277 -0.23284,0.52916 -0.6985,0.52916 h -1.587493 c -0.465667,0 -0.6985,-0.17639 -0.6985,-0.52916 0,-0.35278 0.232833,-0.52917 0.6985,-0.52917 h 0.15875 v -4.0534 h -0.15875 c -0.465667,0 -0.6985,-0.17639 -0.6985,-0.52917 0,-0.20461 0.05997,-0.34219 0.17991,-0.41274 0.119947,-0.0776 0.29281,-0.11642 0.51859,-0.11642 h 2.360073 c 0.68438,0 1.24177,0.17639 1.67216,0.52916 0.43744,0.34573 0.65617,0.79728 0.65617,1.35467 0,0.64911 -0.381,1.1818 -1.143,1.59807 0.45861,0.40217 0.90311,0.94544 1.3335,1.62983 z m -3.7994,-2.34949 h 0.80433 c 0.44449,0 0.81138,-0.0847 1.10066,-0.254 0.29633,-0.17639 0.4445,-0.39511 0.4445,-0.65616 0,-0.22578 -0.10936,-0.41275 -0.32808,-0.56092 -0.21873,-0.15522 -0.49742,-0.23283 -0.83608,-0.23283 h -1.18533 z"
         id="path8"
         aria-label="R U B I C R O S S" />
      <path
         style="font-weight:bold;font-size:10.5833px;line-height:1.25;font-family:FreeMono;-inkscape-font-specification:'FreeMono Bold';fill:#676767;stroke:#676767;stroke-width:0.264583;stroke-opacity:1"
         d="m 106.16127,180.71169 c 0,0.68439 -0.23989,1.24177 -0.71967,1.67216 -0.47977,0.43039 -1.04774,0.64558 -1.70391,0.64558 -0.65617,0 -1.22414,-0.21872 -1.70391,-0.65617 -0.47978,-0.43744 -0.71967,-0.9913 -0.71967,-1.66157 v -2.94216 c -0.4304,-0.0141 -0.64559,-0.19052 -0.64559,-0.52917 0,-0.20461 0.06,-0.34219 0.17992,-0.41275 0.11995,-0.0776 0.29282,-0.11642 0.51859,-0.11642 h 1.37583 c 0.22578,0 0.39864,0.0353 0.51858,0.10583 0.11995,0.0706 0.17992,0.21166 0.17992,0.42333 0,0.35278 -0.23283,0.52917 -0.6985,0.52917 h -0.37042 v 3.03741 c 0,0.32455 0.13406,0.59972 0.40217,0.82549 0.26811,0.22578 0.58914,0.33867 0.96308,0.33867 0.37395,0 0.69497,-0.11289 0.96308,-0.33867 0.26811,-0.22577 0.40217,-0.50094 0.40217,-0.82549 v -3.03741 h -0.37042 c -0.46567,0 -0.6985,-0.17639 -0.6985,-0.52917 0,-0.20461 0.06,-0.34219 0.17992,-0.41274 0.11995,-0.0776 0.29281,-0.11642 0.51858,-0.11642 h 1.37583 c 0.23283,0 0.40569,0.0388 0.51858,0.11642 0.11995,0.0705 0.17992,0.20813 0.17992,0.41274 0,0.35278 -0.21519,0.52917 -0.64558,0.52917 z"
         id="path9"
         aria-label="R U B I C R O S S" />
      <path
         d="m 108.97609,182.95534 c -0.46567,0 -0.6985,-0.17639 -0.6985,-0.52916 0,-0.35278 0.23283,-0.52917 0.6985,-0.52917 h 0.15875 v -4.0534 h -0.15875 c -0.46567,0 -0.6985,-0.17639 -0.6985,-0.52917 0,-0.20461 0.06,-0.34219 0.17992,-0.41274 0.127,-0.0776 0.29986,-0.11642 0.51858,-0.11642 h 2.67757 c 0.59972,0 1.09361,0.1658 1.48167,0.49741 0.3951,0.33161 0.59266,0.74789 0.59266,1.24883 0,0.45155 -0.22225,0.85019 -0.66675,1.19592 0.74788,0.37394 1.12183,0.88546 1.12183,1.53457 0,0.508 -0.1905,0.91722 -0.5715,1.22767 -0.381,0.31044 -0.88547,0.46566 -1.51341,0.46566 z m 1.21708,-3.61949 h 1.19591 c 0.381,0 0.68791,-0.0741 0.92075,-0.22225 0.23988,-0.15522 0.35983,-0.35278 0.35983,-0.59266 0,-0.21167 -0.0952,-0.37748 -0.28575,-0.49742 -0.1905,-0.11994 -0.45156,-0.17991 -0.78316,-0.17991 h -1.40758 z m 2.93157,1.98966 c 0,-0.28222 -0.13759,-0.508 -0.41275,-0.67733 -0.27517,-0.16934 -0.63853,-0.254 -1.09008,-0.254 h -1.42874 v 1.50283 h 1.85208 c 0.71966,0 1.07949,-0.1905 1.07949,-0.5715 z"
         style="font-weight:bold;font-size:10.5833px;line-height:1.25;font-family:FreeMono;-inkscape-font-specification:'FreeMono Bold';fill:#676767;stroke:#676767;stroke-width:0.264583;stroke-opacity:1"
         id="path1" />
      <path
         d="m 119.26272,181.89701 c 0.22578,0 0.39864,0.0388 0.51858,0.11642 0.11995,0.0705 0.17992,0.20814 0.17992,0.41275 0,0.35277 -0.23283,0.52916 -0.6985,0.52916 h -3.19615 c -0.46567,0 -0.6985,-0.17639 -0.6985,-0.52916 0,-0.20461 0.06,-0.3422 0.17991,-0.41275 0.11995,-0.0776 0.29281,-0.11642 0.51859,-0.11642 h 1.06891 v -4.0534 h -1.06891 c -0.46567,0 -0.6985,-0.17639 -0.6985,-0.52917 0,-0.20461 0.06,-0.34219 0.17991,-0.41274 0.11995,-0.0776 0.29281,-0.11642 0.51859,-0.11642 h 3.19615 c 0.22578,0 0.39864,0.0388 0.51858,0.11642 0.11995,0.0705 0.17992,0.20813 0.17992,0.41274 0,0.35278 -0.23283,0.52917 -0.6985,0.52917 h -1.06891 v 4.0534 z"
         style="font-weight:bold;font-size:10.5833px;line-height:1.25;font-family:FreeMono;-inkscape-font-specification:'FreeMono Bold';fill:#676767;stroke:#676767;stroke-width:0.264583;stroke-opacity:1"
         id="path1-2" />
      <path
         d="m 124.1413,182.04518 c 0.33161,0 0.61384,-0.0388 0.84667,-0.11642 0.23989,-0.0847 0.40922,-0.17286 0.50799,-0.26458 0.0988,-0.0988 0.19756,-0.18697 0.29634,-0.26458 0.10583,-0.0847 0.20461,-0.127 0.29633,-0.127 0.14111,0 0.26458,0.0529 0.37041,0.15875 0.10583,0.10583 0.15875,0.2293 0.15875,0.37041 0,0.30339 -0.24341,0.59619 -0.73024,0.87842 -0.47978,0.28222 -1.07245,0.42333 -1.778,0.42333 -0.89605,0 -1.64041,-0.26106 -2.23307,-0.78317 -0.58561,-0.52916 -0.87842,-1.19591 -0.87842,-2.00024 v -0.6985 c 0,-0.84666 0.27517,-1.55574 0.8255,-2.12724 0.55033,-0.5715 1.23472,-0.85725 2.05316,-0.85725 0.49389,0 0.99483,0.11994 1.50283,0.35983 l 0.10583,0.0423 c 0.11995,-0.16933 0.26811,-0.254 0.4445,-0.254 0.20461,0 0.34219,0.06 0.41275,0.17991 0.0776,0.11995 0.11641,0.29281 0.11641,0.51859 v 0.88899 c 0,0.46567 -0.17639,0.6985 -0.52916,0.6985 -0.127,0 -0.23283,-0.0353 -0.3175,-0.10583 -0.0776,-0.0705 -0.127,-0.13405 -0.14817,-0.1905 -0.0141,-0.0635 -0.0318,-0.15166 -0.0529,-0.26458 -0.0423,-0.21167 -0.17286,-0.381 -0.39158,-0.508 -0.21167,-0.13405 -0.40922,-0.21872 -0.59267,-0.254 -0.18345,-0.0353 -0.35278,-0.0529 -0.508,-0.0529 -0.53622,0 -0.98072,0.18344 -1.33349,0.55033 -0.35278,0.35983 -0.52917,0.81844 -0.52917,1.37583 v 0.67733 c 0,0.52917 0.18697,0.9525 0.56092,1.27 0.38099,0.3175 0.88899,0.47625 1.52399,0.47625 z"
         style="font-weight:bold;font-size:10.5833px;line-height:1.25;font-family:FreeMono;-inkscape-font-specification:'FreeMono Bold';fill:#676767;stroke:#676767;stroke-width:0.264583;stroke-opacity:1"
         id="path1-9" />
      <path
         d="m 146.46058,176.63721 c 0.21167,0 0.34925,0.06 0.41275,0.17992 0.0705,0.11994 0.10583,0.2928 0.10583,0.51858 v 0.93133 c 0,0.47272 -0.17286,0.70908 -0.51858,0.70908 -0.0565,0 -0.10938,-0.004 -0.15875,-0.0106 -0.0423,-0.0141 -0.0811,-0.0282 -0.11642,-0.0423 -0.0282,-0.0211 -0.0564,-0.0458 -0.0847,-0.0741 -0.0282,-0.0353 -0.0494,-0.0635 -0.0635,-0.0847 -0.0141,-0.0211 -0.0282,-0.0529 -0.0423,-0.0952 -0.0141,-0.0423 -0.0247,-0.0706 -0.0318,-0.0847 0,-0.0212 -0.007,-0.053 -0.0212,-0.0953 -0.007,-0.0494 -0.0106,-0.0776 -0.0106,-0.0847 -0.0494,-0.21167 -0.19051,-0.381 -0.42333,-0.50799 -0.22577,-0.13406 -0.50447,-0.20109 -0.83608,-0.20109 -0.33161,0 -0.61383,0.0776 -0.84666,0.23284 -0.23283,0.15522 -0.34925,0.34572 -0.34925,0.57149 0,0.23989 0.11642,0.42687 0.34925,0.56092 0.23283,0.127 0.50447,0.21167 0.81491,0.254 0.31045,0.0353 0.65617,0.10582 1.03716,0.21166 0.381,0.0988 0.68086,0.23636 0.89958,0.41275 0.41628,0.33161 0.62442,0.77258 0.62442,1.32291 0,0.55033 -0.22225,0.99483 -0.66675,1.3335 -0.4445,0.33867 -1.03011,0.508 -1.75683,0.508 -0.58561,0 -1.13594,-0.13758 -1.65099,-0.41275 -0.14111,0.16933 -0.28222,0.254 -0.42333,0.254 -0.35983,0 -0.53975,-0.23283 -0.53975,-0.6985 v -0.6985 c 0,-0.23283 0.0388,-0.40569 0.11641,-0.51858 0.0776,-0.11994 0.2152,-0.17991 0.41275,-0.17991 0.0635,0 0.11991,0.007 0.16934,0.0212 0.0565,0.0141 0.10233,0.0353 0.13758,0.0635 0.0353,0.0282 0.0635,0.0564 0.0847,0.0847 0.0282,0.0211 0.0494,0.0529 0.0635,0.0952 0.0211,0.0423 0.0352,0.0741 0.0423,0.0952 0.007,0.0212 0.0141,0.0494 0.0212,0.0847 0.0141,0.0353 0.0212,0.0564 0.0212,0.0635 0.0494,0.1905 0.21873,0.35278 0.508,0.48684 0.28928,0.13405 0.61031,0.20108 0.96308,0.20108 0.39511,0 0.72672,-0.0776 0.99483,-0.23283 0.26811,-0.15523 0.40217,-0.34573 0.40217,-0.5715 0,-0.21167 -0.10583,-0.381 -0.3175,-0.508 -0.20461,-0.127 -0.4445,-0.21167 -0.71967,-0.254 -0.26811,-0.0423 -0.5856,-0.10583 -0.95249,-0.1905 -0.35983,-0.0847 -0.64911,-0.18697 -0.86784,-0.30691 -0.26811,-0.15523 -0.47977,-0.36337 -0.63499,-0.62442 -0.15523,-0.26105 -0.23284,-0.54327 -0.23284,-0.84666 0,-0.53622 0.21872,-0.98072 0.65617,-1.3335 0.43744,-0.35983 0.98424,-0.53975 1.64041,-0.53975 0.54327,0 1.00188,0.11642 1.37583,0.34925 0.0565,-0.13405 0.11291,-0.22577 0.16933,-0.27516 0.0565,-0.0494 0.13761,-0.0741 0.24342,-0.0741 z"
         style="font-weight:bold;font-size:10.5833px;line-height:1.25;font-family:FreeMono;-inkscape-font-specification:'FreeMono Bold';fill:#676767;stroke:#676767;stroke-width:0.264583;stroke-opacity:1"
         id="path1-6" />
      <path
         style="font-weight:bold;font-size:10.5833px;line-height:1.25;font-family:FreeMono;-inkscape-font-specification:'FreeMono Bold';fill:#676767;stroke:#676767;stroke-width:0.264583;stroke-opacity:1"
         d="m 133.57068,181.89701 c 0.46567,0 0.6985,0.17639 0.6985,0.52917 0,0.35277 -0.23283,0.52916 -0.6985,0.52916 h -0.83608 c -0.26105,-0.508 -0.59619,-1.00541 -1.00541,-1.49224 -0.40216,-0.49389 -0.71614,-0.77964 -0.94192,-0.85725 h -1.01599 v 1.29116 h 0.37041 c 0.46567,0 0.6985,0.17639 0.6985,0.52917 0,0.35277 -0.23283,0.52916 -0.6985,0.52916 h -1.58749 c -0.46566,0 -0.6985,-0.17639 -0.6985,-0.52916 0,-0.35278 0.23284,-0.52917 0.6985,-0.52917 h 0.15875 v -4.0534 h -0.15875 c -0.46566,0 -0.6985,-0.17639 -0.6985,-0.52917 0,-0.20461 0.06,-0.34219 0.17991,-0.41274 0.11995,-0.0776 0.29281,-0.11642 0.51859,-0.11642 h 2.36007 c 0.68439,0 1.24178,0.17639 1.67216,0.52916 0.43745,0.34573 0.65617,0.79728 0.65617,1.35467 0,0.64911 -0.381,1.1818 -1.143,1.59807 0.45862,0.40217 0.90312,0.94544 1.3335,1.62983 z m -3.7994,-2.34949 h 0.80433 c 0.4445,0 0.81138,-0.0847 1.10066,-0.254 0.29634,-0.17639 0.4445,-0.39511 0.4445,-0.65616 0,-0.22578 -0.10936,-0.41275 -0.32808,-0.56092 -0.21872,-0.15522 -0.49742,-0.23283 -0.83608,-0.23283 h -1.18533 z"
         id="path14"
         aria-label="R U B I C R O S S" />
      <path
         d="m 137.89725,176.6371 c 0.15522,0 0.33866,0.0247 0.55033,0.0741 0.21167,0.0423 0.46214,0.13758 0.75141,0.28574 0.29633,0.14817 0.56092,0.33514 0.79375,0.56092 0.23989,0.22578 0.44097,0.54681 0.60325,0.96308 0.16933,0.40922 0.254,0.87489 0.254,1.397 0,0.86783 -0.29281,1.61571 -0.87842,2.24366 -0.57855,0.62794 -1.26999,0.94191 -2.07432,0.94191 -0.81845,0 -1.51695,-0.31397 -2.0955,-0.94191 -0.5715,-0.635 -0.85725,-1.40053 -0.85725,-2.29658 0,-0.889 0.28928,-1.64747 0.86784,-2.27541 0.57855,-0.635 1.27352,-0.9525 2.08491,-0.9525 z m 0,1.05833 c -0.51506,0 -0.95956,0.21519 -1.3335,0.64558 -0.37395,0.42333 -0.56092,0.93133 -0.56092,1.524 0,0.59972 0.18345,1.11477 0.55034,1.54516 0.37394,0.42333 0.82197,0.635 1.34408,0.635 0.51505,0 0.95955,-0.21167 1.33349,-0.635 0.37395,-0.42333 0.56092,-0.9278 0.56092,-1.51341 0,-0.60677 -0.18697,-1.12536 -0.56092,-1.55575 -0.36689,-0.43039 -0.81138,-0.64558 -1.33349,-0.64558 z"
         style="font-weight:bold;font-size:10.5833px;line-height:1.25;font-family:FreeMono;-inkscape-font-specification:'FreeMono Bold';fill:#676767;stroke:#676767;stroke-width:0.264583;stroke-opacity:1"
         id="path15" />
      <path
         d="m 152.94445,176.63721 c 0.21167,0 0.34925,0.06 0.41275,0.17992 0.0705,0.11994 0.10583,0.2928 0.10583,0.51858 v 0.93133 c 0,0.47272 -0.17286,0.70908 -0.51858,0.70908 -0.0565,0 -0.10938,-0.004 -0.15875,-0.0106 -0.0423,-0.0141 -0.0811,-0.0282 -0.11642,-0.0423 -0.0282,-0.0211 -0.0564,-0.0458 -0.0847,-0.0741 -0.0282,-0.0353 -0.0494,-0.0635 -0.0635,-0.0847 -0.0141,-0.0211 -0.0282,-0.0529 -0.0423,-0.0952 -0.0141,-0.0423 -0.0247,-0.0706 -0.0318,-0.0847 0,-0.0212 -0.007,-0.053 -0.0212,-0.0953 -0.007,-0.0494 -0.0106,-0.0776 -0.0106,-0.0847 -0.0494,-0.21167 -0.19051,-0.381 -0.42333,-0.50799 -0.22577,-0.13406 -0.50447,-0.20109 -0.83608,-0.20109 -0.33161,0 -0.61383,0.0776 -0.84666,0.23284 -0.23283,0.15522 -0.34925,0.34572 -0.34925,0.57149 0,0.23989 0.11642,0.42687 0.34925,0.56092 0.23283,0.127 0.50447,0.21167 0.81491,0.254 0.31045,0.0353 0.65617,0.10582 1.03716,0.21166 0.381,0.0988 0.68086,0.23636 0.89958,0.41275 0.41628,0.33161 0.62442,0.77258 0.62442,1.32291 0,0.55033 -0.22225,0.99483 -0.66675,1.3335 -0.4445,0.33867 -1.03011,0.508 -1.75683,0.508 -0.58561,0 -1.13594,-0.13758 -1.65099,-0.41275 -0.14111,0.16933 -0.28222,0.254 -0.42333,0.254 -0.35983,0 -0.53975,-0.23283 -0.53975,-0.6985 v -0.6985 c 0,-0.23283 0.0388,-0.40569 0.11641,-0.51858 0.0776,-0.11994 0.2152,-0.17991 0.41275,-0.17991 0.0635,0 0.11991,0.007 0.16934,0.0212 0.0565,0.0141 0.10233,0.0353 0.13758,0.0635 0.0353,0.0282 0.0635,0.0564 0.0847,0.0847 0.0282,0.0211 0.0494,0.0529 0.0635,0.0952 0.0211,0.0423 0.0352,0.0741 0.0423,0.0952 0.007,0.0212 0.0141,0.0494 0.0212,0.0847 0.0141,0.0353 0.0212,0.0564 0.0212,0.0635 0.0494,0.1905 0.21873,0.35278 0.508,0.48684 0.28928,0.13405 0.61031,0.20108 0.96308,0.20108 0.39511,0 0.72672,-0.0776 0.99483,-0.23283 0.26811,-0.15523 0.40217,-0.34573 0.40217,-0.5715 0,-0.21167 -0.10583,-0.381 -0.3175,-0.508 -0.20461,-0.127 -0.4445,-0.21167 -0.71967,-0.254 -0.26811,-0.0423 -0.5856,-0.10583 -0.95249,-0.1905 -0.35983,-0.0847 -0.64911,-0.18697 -0.86784,-0.30691 -0.26811,-0.15523 -0.47977,-0.36337 -0.63499,-0.62442 -0.15523,-0.26105 -0.23284,-0.54327 -0.23284,-0.84666 0,-0.53622 0.21872,-0.98072 0.65617,-1.3335 0.43744,-0.35983 0.98424,-0.53975 1.64041,-0.53975 0.54327,0 1.00188,0.11642 1.37583,0.34925 0.0565,-0.13405 0.11291,-0.22577 0.16933,-0.27516 0.0565,-0.0494 0.13761,-0.0741 0.24342,-0.0741 z"
         style="font-weight:bold;font-size:10.5833px;line-height:1.25;font-family:FreeMono;-inkscape-font-specification:'FreeMono Bold';fill:#676767;stroke:#676767;stroke-width:0.264583;stroke-opacity:1"
         id="path16" />
    </g>
  </g>
</svg>
